<svg xmlns="http://www.w3.org/2000/svg" width="935.4" height="226.8" baseProfile="tiny" viewBox="0 0 935.4 226.8"><ellipse cx="467.7" cy="113.4" rx="466.3" ry="112"/><g fill="#FFF"><path d="M258.4 103.1h-23.7v-2.7c1.1-.1 2.4-.3 3.9-.7 1.5-.4 2.2-.8 2.2-1.3v-.6c0-.2-.1-.5-.3-.9l-3.7-10h-15.1c-.3.9-.7 2-1.1 3.3-.4 1.3-.8 2.4-1.1 3.3-.4 1.3-.6 2.2-.7 2.8-.1.6-.1 1-.1 1.2 0 .7.5 1.3 1.5 1.9 1 .5 2.6.9 5 1.1v2.7h-17.9v-2.7c.7 0 1.4-.2 2.3-.4.8-.2 1.5-.5 2-.8.8-.5 1.6-1.2 2.1-2 .6-.8 1.1-1.7 1.5-2.8 2.4-6.4 4.8-12.8 7.1-19.2 2.4-6.4 5-13.5 7.9-21.2h6.1c4 11 7.2 19.6 9.4 26 2.3 6.4 4.2 11.7 5.8 15.8.3.7.6 1.3 1 1.9.4.6 1 1.1 1.8 1.6.6.4 1.2.6 2 .8.8.2 1.4.3 2.1.3v2.6zm-22.9-19.6L229.2 66 223 83.5h12.5zM276.3 97.5c0 1.8-.6 3.4-1.8 4.7-1.2 1.3-2.6 2-4.3 2-1.7 0-3.1-.7-4.3-2-1.2-1.3-1.8-2.9-1.8-4.7 0-1.8.6-3.4 1.8-4.7 1.2-1.3 2.6-2 4.3-2 1.6 0 3.1.7 4.3 2 1.2 1.3 1.8 2.9 1.8 4.7zM340 66.8c0 2.7-.5 5.1-1.5 7-1 2-2.4 3.6-4.2 4.8-1.8 1.3-3.9 2.2-6.3 2.8-2.4.6-5 .9-8 .9h-3.6v13.6c0 .8.1 1.5.4 2.1.3.6.8 1.1 1.6 1.5.4.2 1.1.4 2 .6.9.2 1.7.3 2.3.4v2.7h-23.6v-2.7c.6-.1 1.4-.2 2.4-.3 1-.1 1.7-.3 2.1-.5.8-.4 1.3-.8 1.6-1.3.3-.5.4-1.3.4-2.2V62c0-.8-.1-1.5-.4-2.1-.2-.6-.8-1.1-1.6-1.5-.6-.3-1.3-.5-2.3-.7-1-.2-1.7-.4-2.1-.4v-2.7h24.1c5.6 0 9.8 1 12.6 3 2.7 2.1 4.1 5.1 4.1 9.2zm-12 1.8c0-3.6-.7-6.3-2-8.1-1.3-1.8-3.7-2.6-7.1-2.6h-2.5v21.3h1.3c3.4 0 5.9-.9 7.7-2.6 1.7-1.8 2.6-4.5 2.6-8zM350.1 97.5c0 1.8-.6 3.4-1.8 4.7s-2.6 2-4.3 2c-1.7 0-3.1-.7-4.3-2-1.2-1.3-1.8-2.9-1.8-4.7 0-1.8.6-3.4 1.8-4.7 1.2-1.3 2.6-2 4.3-2 1.6 0 3.1.7 4.3 2 1.2 1.3 1.8 2.9 1.8 4.7zM396.9 104.5c-3.2 0-6.2-.6-9-1.7-2.8-1.2-5.2-2.8-7.3-5-2-2.1-3.6-4.8-4.8-7.9-1.2-3.2-1.8-6.6-1.8-10.4 0-3.8.6-7.2 1.8-10.4 1.2-3.2 2.8-6 5-8.3 2.1-2.3 4.6-4.1 7.5-5.3 2.9-1.3 6.1-1.9 9.4-1.9 2.4 0 4.6.3 6.6 1s3.7 1.4 5 2.2l1.9-1.9h2.7l.3 17.7h-2.7C410 67 408.2 63 406 60.5c-2.1-2.5-4.8-3.8-7.9-3.8-3.8 0-6.8 1.9-8.8 5.7-2 3.8-3 9.1-3 15.9 0 3.9.3 7.1 1 9.9.7 2.7 1.6 4.9 2.7 6.6 1.2 1.7 2.6 3 4.2 3.8 1.6.8 3.4 1.2 5.4 1.2 2.9 0 5.4-.9 7.7-2.6 2.2-1.7 4.3-4.3 6.1-7.9l2.6 1.8c-.9 2-1.9 3.8-3 5.4-1.1 1.6-2.4 2.9-3.9 4.1-1.6 1.3-3.4 2.2-5.4 2.9-1.8.6-4.1 1-6.8 1zM464.5 87.6l-.9 15.5h-40.2v-2.7c.7-.1 1.6-.2 2.5-.3 1-.1 1.6-.3 1.9-.4.7-.3 1.2-.8 1.5-1.3.3-.6.4-1.3.4-2.2V62c0-.8-.1-1.5-.3-2-.2-.5-.8-1-1.6-1.5-.6-.3-1.4-.6-2.3-.8-.9-.2-1.6-.3-2.1-.4v-2.7h23.9v2.7c-.7.1-1.4.2-2.3.3-.9.1-1.7.3-2.3.5-.8.3-1.3.8-1.6 1.4-.3.6-.4 1.3-.4 2.1v31.9c0 1.5.1 2.7.3 3.6.2.9.5 1.5 1.1 1.9.5.4 1.3.7 2.2.8 1 .1 2.3.2 3.9.2s3.2-.1 4.8-.3c1.5-.2 2.7-.7 3.3-1.4 1-1.2 2.1-2.8 3.2-4.9 1.1-2.1 2-4 2.6-5.8h2.4zM510.8 67.1h-2.3c-.6-1.8-1.6-3.7-3.1-5.6-1.5-1.9-2.9-3-4.3-3.3-.6-.2-1.5-.3-2.6-.3s-2-.1-2.7-.1h-6.3v18.7h4.5c1.1 0 2.2-.1 3.1-.4.9-.3 1.8-.9 2.5-1.7.5-.5.9-1.4 1.4-2.8.5-1.3.8-2.5.9-3.4h2.3v20.2h-2.3c-.1-1-.4-2.2-.9-3.6s-1-2.4-1.4-3c-.7-.8-1.5-1.4-2.4-1.7-.9-.3-2-.5-3.2-.5h-4.5v14c0 1.5.1 2.6.3 3.5.2.9.6 1.5 1.1 2 .5.4 1.2.7 2.1.9.9.1 2.1.2 3.6.2h2.6c1 0 1.9-.1 2.6-.2.9-.1 1.7-.3 2.4-.5s1.3-.6 1.7-1c1-1.1 2.1-2.8 3.3-5.1 1.2-2.3 2-4 2.4-5.1h2.2l-.8 15.1h-40.9v-2.7c.6 0 1.4-.1 2.3-.3 1-.1 1.7-.3 2.1-.5.8-.4 1.3-.8 1.6-1.4.3-.6.4-1.3.4-2.1V62c0-.8-.1-1.5-.3-2-.2-.5-.8-1-1.6-1.5-.5-.3-1.3-.5-2.2-.8-1-.2-1.7-.4-2.2-.4v-2.7h38.6v12.5zM571.6 103.1h-23.7v-2.7c1.1-.1 2.4-.3 3.9-.7 1.5-.4 2.2-.8 2.2-1.3v-.6c0-.2-.1-.5-.3-.9l-3.7-10h-15.1c-.3.9-.7 2-1.1 3.3-.4 1.3-.8 2.4-1.1 3.3-.4 1.3-.6 2.2-.7 2.8-.1.6-.1 1-.1 1.2 0 .7.5 1.3 1.5 1.9 1 .5 2.6.9 5 1.1v2.7h-17.9v-2.7c.7 0 1.4-.2 2.3-.4.9-.2 1.5-.5 2-.8.8-.5 1.6-1.2 2.1-2 .6-.8 1.1-1.7 1.5-2.8 2.4-6.4 4.8-12.8 7.1-19.2 2.4-6.4 5-13.5 7.9-21.2h6.1c4 11 7.2 19.6 9.4 26 2.3 6.4 4.2 11.7 5.8 15.8.3.7.6 1.3 1 1.9.4.6 1 1.1 1.8 1.6.6.4 1.2.6 2 .8.8.2 1.4.3 2.1.3v2.6zm-22.9-19.6L542.4 66l-6.2 17.5h12.5zM624.1 57.4c-.6.1-1.4.2-2.5.4s-2 .6-2.9 1.3c-.8.6-1.3 1.7-1.6 3.2-.3 1.5-.5 3.7-.5 6.6v34.6h-5.5L584 66v22.7c0 2.8.2 5 .5 6.4.3 1.5.9 2.5 1.6 3.2.6.5 1.4.9 2.6 1.3 1.2.4 2.2.6 2.9.8v2.7H573v-2.7c.8-.1 1.7-.2 2.7-.5 1-.3 1.9-.7 2.6-1.2.8-.7 1.3-1.7 1.6-3 .3-1.3.4-3.6.4-6.7V66.1c0-1.1-.2-2.2-.5-3.2s-.8-1.9-1.5-2.6c-.7-.8-1.5-1.4-2.5-1.8-.9-.4-2-.8-3.2-1v-2.7H589l24 32.7V69.1c0-2.9-.2-5.1-.5-6.5-.3-1.4-.9-2.5-1.7-3.2-.6-.5-1.5-1-2.6-1.3-1.2-.4-2.1-.6-2.8-.8v-2.7h18.7v2.8zM652.8 103.1h-24.2v-2.7c.6 0 1.4-.1 2.4-.2 1.1-.1 1.8-.2 2.2-.4.8-.3 1.3-.8 1.6-1.3.3-.6.4-1.3.4-2.1V62c0-.8-.1-1.5-.4-2-.3-.6-.8-1.1-1.6-1.4-.5-.2-1.2-.5-2.2-.7-1-.2-1.8-.4-2.5-.5v-2.7h24.2v2.7c-.6.1-1.4.2-2.3.3-.9.1-1.7.3-2.3.5-.8.3-1.3.8-1.6 1.4-.3.6-.4 1.3-.4 2.1V96c0 .8.1 1.5.4 2.1.3.6.8 1.1 1.6 1.4.4.2 1.1.4 2.1.6 1 .2 1.8.3 2.5.4v2.6zM709 57.4c-.6.1-1.4.2-2.5.4s-2 .6-2.9 1.3c-.8.6-1.3 1.7-1.6 3.2-.3 1.5-.5 3.7-.5 6.6v34.6H696L668.9 66v22.7c0 2.8.2 5 .5 6.4.3 1.5.9 2.5 1.6 3.2.6.5 1.4.9 2.6 1.3 1.2.4 2.2.6 2.9.8v2.7h-18.7v-2.7c.8-.1 1.7-.2 2.8-.5 1-.3 1.9-.7 2.6-1.2.8-.7 1.3-1.7 1.6-3 .3-1.3.4-3.6.4-6.7V66.1c0-1.1-.2-2.2-.5-3.2s-.8-1.9-1.5-2.6c-.7-.8-1.5-1.4-2.5-1.8-.9-.4-2-.8-3.2-1v-2.7h16.4l23.8 32.8V69.1c0-2.9-.2-5.1-.5-6.5-.3-1.4-.9-2.5-1.7-3.2-.6-.5-1.5-1-2.6-1.3-1.2-.4-2.1-.6-2.8-.8v-2.7H709v2.8zM757.5 83.4c-.6.1-1.2.1-1.7.2s-1.1.3-1.8.5c-.8.3-1.4.8-1.7 1.5-.3.7-.4 1.4-.4 2.2v8.3c0 .7.1 1.6.1 2.6-2 1.4-5.1 2.7-9.1 3.9s-7.7 1.8-11 1.8c-3.2 0-6.1-.5-8.9-1.6-2.8-1.1-5.2-2.7-7.3-4.8-2.1-2.1-3.7-4.7-4.9-7.9-1.2-3.1-1.8-6.7-1.8-10.8 0-3.8.6-7.3 1.7-10.5s2.8-6 4.9-8.3c2.1-2.3 4.6-4.1 7.6-5.3 3-1.3 6.3-1.9 10-1.9 2.5 0 4.8.3 6.9 1 2.1.7 3.9 1.4 5.2 2.2l1.9-1.9h2.7l.3 17.7h-2.7c-1.6-5.3-3.4-9.3-5.6-11.8-2.2-2.6-4.9-3.9-8.2-3.9-3.9 0-7 1.9-9.1 5.7-2.1 3.8-3.2 9.1-3.2 15.8 0 7.1 1 12.7 3.1 16.7s5.1 6 8.9 6c1.8 0 3.4-.3 4.8-.9 1.4-.6 2.5-1.3 3.3-2.1V88c0-.8-.1-1.5-.4-2.1-.3-.6-.8-1-1.6-1.5-.6-.3-1.4-.6-2.3-.8-.9-.2-1.7-.4-2.3-.4v-2.7h22.6v2.9zM326.7 188.4c-2.7 0-5.1-.4-7.5-1.1-2.3-.7-4.3-1.6-5.9-2.6l-2.1 2.4h-2.6l-.4-17.5h2.6c.6 1.7 1.4 3.4 2.3 5.3.9 1.8 2 3.5 3.2 5 1.2 1.5 2.6 2.8 4.2 3.7 1.5 1 3.4 1.4 5.4 1.4 2.8 0 4.9-.8 6.4-2.3 1.5-1.5 2.2-3.4 2.2-5.7 0-1.9-.6-3.5-1.9-4.8-1.3-1.3-3.2-2.4-5.9-3.3-1.7-.6-3.3-1.2-4.7-1.7-1.4-.5-2.8-1.1-4.1-1.6-2.9-1.3-5.1-3.2-6.5-5.6-1.4-2.4-2.1-5.1-2.1-8.1 0-1.9.4-3.7 1.1-5.5.7-1.7 1.8-3.3 3.2-4.7 1.4-1.3 3.1-2.4 5.2-3.2 2.1-.8 4.4-1.2 6.9-1.2 2.4 0 4.7.4 6.8 1.1 2.1.8 3.8 1.5 5 2.3l1.9-2h2.7l.2 16.5h-2.6c-.6-1.8-1.3-3.6-2.2-5.5-.8-1.9-1.7-3.4-2.6-4.6-1-1.3-2.2-2.4-3.5-3.2-1.3-.8-2.8-1.2-4.6-1.2-2.2 0-4 .7-5.4 2.1-1.4 1.4-2.1 3.1-2.1 5.2 0 1.9.6 3.5 1.8 4.8 1.2 1.2 3.1 2.3 5.7 3.2 1.5.6 3.1 1.1 4.6 1.7 1.6.6 3 1.1 4.2 1.6 3 1.3 5.2 3 6.8 5.3 1.5 2.2 2.3 5 2.3 8.4 0 2.1-.4 4.1-1.3 6.1s-2.1 3.6-3.6 4.9c-1.6 1.4-3.5 2.5-5.7 3.3-2.1.7-4.6 1.1-7.4 1.1zM389.9 151h-2.3c-.6-1.8-1.6-3.7-3.1-5.6-1.5-1.9-2.9-3-4.3-3.3-.6-.2-1.5-.3-2.6-.3s-2-.1-2.7-.1h-6.3v18.7h4.5c1.1 0 2.2-.1 3.1-.4.9-.3 1.8-.9 2.5-1.7.5-.5.9-1.4 1.4-2.8.5-1.3.8-2.5.9-3.4h2.3v20.2H381c-.1-1-.4-2.2-.9-3.6s-1-2.4-1.4-3c-.7-.8-1.5-1.4-2.4-1.7-.9-.3-2-.5-3.2-.5h-4.5v14c0 1.5.1 2.6.3 3.5.2.9.6 1.5 1.1 2 .5.4 1.2.7 2.1.9s2.1.2 3.6.2h2.6c1 0 1.9-.1 2.6-.2.9-.1 1.7-.3 2.4-.5s1.3-.6 1.7-1c1-1.1 2.1-2.8 3.3-5.1 1.2-2.3 2-4 2.4-5.1h2.2l-.8 15.1h-40.9v-2.7c.6 0 1.4-.1 2.3-.3 1-.1 1.7-.3 2.1-.5.8-.4 1.3-.8 1.6-1.4.3-.6.4-1.3.4-2.1v-34.2c0-.8-.1-1.5-.3-2-.2-.5-.8-1-1.6-1.5-.5-.3-1.3-.5-2.2-.8-1-.2-1.7-.4-2.2-.4v-2.7H390V151zM449.8 187h-16.7c-2.9-4.9-5.3-8.8-7.2-11.7-1.9-2.9-4.3-6.3-7.1-10.1h-1.7v14.7c0 .8.1 1.5.4 2.1.3.6.8 1 1.6 1.4.4.2 1 .4 1.8.6s1.5.3 2.1.4v2.7h-23.3v-2.7c.6-.1 1.4-.2 2.4-.3 1-.1 1.7-.3 2.1-.5.8-.4 1.3-.8 1.6-1.4s.4-1.3.4-2.1v-34.2c0-.8-.1-1.5-.3-2-.2-.5-.8-1-1.6-1.4-.7-.3-1.4-.5-2.3-.8-.9-.2-1.6-.4-2.1-.4v-2.7h24.5c5.5 0 9.6 1 12.5 2.9 2.8 1.9 4.3 4.8 4.3 8.6 0 3.4-.9 6.1-2.6 8.2s-4.4 3.7-8 4.8c1.4 2 3 4.3 4.9 7 1.9 2.6 3.8 5.3 5.8 8.1.6.9 1.5 2 2.6 3.3 1.1 1.3 2.1 2.1 2.9 2.4.5.2 1.1.3 1.8.4.7.1 1.2.2 1.6.2v2.5zm-20.9-36c0-3.2-.8-5.6-2.4-7.1-1.6-1.5-3.9-2.2-7-2.2h-2.4V162h2.3c3 0 5.3-.9 7-2.6 1.7-1.8 2.5-4.6 2.5-8.4zM497.9 141.3c-.7.1-1.3.2-1.9.4s-1.2.5-1.9 1c-.9.6-1.6 1.2-2 1.8-.5.6-1 1.5-1.4 2.7-.6 1.6-1.5 3.9-2.7 6.9-1.1 3-2.5 6.4-3.9 10.3-1.3 3.5-2.7 7.2-4.3 11.4-1.5 4.1-3 8.1-4.4 11.8h-6.2c-2.9-7.8-5.8-15.7-8.8-23.8-3-8.1-5.1-13.7-6.3-16.8-.5-1.1-.9-2-1.4-2.6-.4-.6-1.1-1.2-2.1-1.8-.7-.4-1.3-.7-1.8-.9-.5-.2-1.2-.3-2.1-.5v-2.7h23.6v2.6c-2.2.3-3.7.6-4.5.9-.8.3-1.2.7-1.2 1.2 0 .3 0 .5.1.8s.2.7.3 1.1c.7 2 1.8 5.3 3.6 9.8 1.7 4.5 4.3 11.5 7.6 20.8 2.1-5.7 3.8-10.4 5.2-14.4 1.4-3.9 2.6-7.4 3.6-10.4.5-1.5.9-2.8 1.3-4.1.3-1.3.5-2.2.5-2.9 0-.7-.5-1.3-1.4-1.8-.9-.5-2.7-.8-5.2-1.1v-2.7h17.7v3zM525.9 187h-24.2v-2.7c.6 0 1.4-.1 2.4-.2s1.8-.2 2.2-.4c.8-.3 1.3-.8 1.6-1.3.3-.6.4-1.3.4-2.1V146c0-.8-.1-1.5-.4-2-.3-.6-.8-1.1-1.6-1.4-.5-.2-1.2-.5-2.2-.7-1-.2-1.8-.4-2.5-.5v-2.7h24.2v2.7c-.6.1-1.4.2-2.3.3-.9.1-1.7.3-2.3.5-.8.3-1.3.8-1.6 1.4-.3.6-.4 1.3-.4 2.1V180c0 .8.1 1.5.4 2.1.3.6.8 1.1 1.6 1.4.4.2 1.1.4 2.1.6 1 .2 1.8.3 2.5.4v2.5zM553.7 188.4c-3.2 0-6.2-.6-9-1.7-2.8-1.2-5.2-2.8-7.3-5-2-2.1-3.6-4.8-4.8-7.9-1.2-3.2-1.8-6.6-1.8-10.4 0-3.8.6-7.2 1.8-10.4 1.2-3.2 2.8-6 5-8.3 2.1-2.3 4.6-4.1 7.5-5.3 2.9-1.3 6.1-1.9 9.4-1.9 2.4 0 4.6.3 6.6 1s3.7 1.4 5 2.2l1.9-1.9h2.7l.3 17.7h-2.7c-1.5-5.4-3.4-9.4-5.5-11.9s-4.8-3.8-7.9-3.8c-3.8 0-6.8 1.9-8.8 5.7-2 3.8-3 9.1-3 15.9 0 3.9.3 7.1 1 9.9.7 2.7 1.6 4.9 2.7 6.6 1.2 1.7 2.6 3 4.2 3.8 1.6.8 3.4 1.2 5.4 1.2 2.9 0 5.4-.9 7.7-2.6 2.2-1.7 4.3-4.3 6.1-7.9l2.6 1.8c-.9 2-1.9 3.8-3 5.4-1.1 1.6-2.4 2.9-3.9 4.1-1.6 1.3-3.4 2.2-5.4 2.9-1.8.4-4.1.8-6.8.8zM616.5 151h-2.3c-.6-1.8-1.6-3.7-3.1-5.6-1.5-1.9-2.9-3-4.3-3.3-.6-.2-1.5-.3-2.6-.3s-2-.1-2.7-.1h-6.3v18.7h4.5c1.1 0 2.2-.1 3.1-.4.9-.3 1.8-.9 2.5-1.7.5-.5.9-1.4 1.4-2.8.5-1.3.8-2.5.9-3.4h2.3v20.2h-2.3c-.1-1-.4-2.2-.9-3.6s-1-2.4-1.4-3c-.7-.8-1.5-1.4-2.4-1.7-.9-.3-2-.5-3.2-.5h-4.5v14c0 1.5.1 2.6.3 3.5.2.9.6 1.5 1.1 2 .5.4 1.2.7 2.1.9s2.1.2 3.6.2h2.6s1.9-.1 2.6-.2c.9-.1 1.7-.3 2.4-.5s1.3-.6 1.7-1c1-1.1 2.1-2.8 3.3-5.1 1.2-2.3 2-4 2.4-5.1h2.2l-.8 15.1h-40.9v-2.7c.6 0 1.4-.1 2.3-.3 1-.1 1.7-.3 2.1-.5.8-.4 1.3-.8 1.6-1.4.3-.6.4-1.3.4-2.1v-34.2c0-.8-.1-1.5-.3-2s-.8-1-1.6-1.5c-.5-.3-1.3-.5-2.2-.8-1-.2-1.7-.4-2.2-.4v-2.7h38.7V151zM645.9 188.4c-2.7 0-5.1-.4-7.5-1.1-2.3-.7-4.3-1.6-5.9-2.6l-2.1 2.4h-2.6l-.4-17.5h2.6c.6 1.7 1.4 3.4 2.3 5.3.9 1.8 2 3.5 3.2 5 1.2 1.5 2.6 2.8 4.2 3.7 1.5 1 3.4 1.4 5.4 1.4 2.8 0 4.9-.8 6.4-2.3 1.5-1.5 2.2-3.4 2.2-5.7 0-1.9-.6-3.5-1.9-4.8-1.3-1.3-3.2-2.4-5.9-3.3-1.7-.6-3.3-1.2-4.7-1.7-1.4-.5-2.8-1.1-4.1-1.6-2.9-1.3-5.1-3.2-6.5-5.6-1.4-2.4-2.1-5.1-2.1-8.1 0-1.9.4-3.7 1.1-5.5.7-1.7 1.8-3.3 3.2-4.7 1.4-1.3 3.1-2.4 5.2-3.2 2.1-.8 4.4-1.2 6.9-1.2 2.4 0 4.7.4 6.8 1.1 2.1.8 3.8 1.5 5 2.3l1.9-2h2.7l.2 16.5h-2.6c-.6-1.8-1.3-3.6-2.2-5.5-.8-1.9-1.7-3.4-2.6-4.6-1-1.3-2.2-2.4-3.5-3.2s-2.8-1.2-4.6-1.2c-2.2 0-4 .7-5.4 2.1-1.4 1.4-2.1 3.1-2.1 5.2 0 1.9.6 3.5 1.8 4.8 1.2 1.2 3.1 2.3 5.7 3.2 1.5.6 3.1 1.1 4.6 1.7 1.6.6 3 1.1 4.2 1.6 3 1.3 5.2 3 6.8 5.3 1.5 2.2 2.3 5 2.3 8.4 0 2.1-.4 4.1-1.3 6.1s-2.1 3.6-3.6 4.9c-1.6 1.4-3.5 2.5-5.7 3.3-2 .7-4.5 1.1-7.4 1.1z"/></g></svg>
