<?xml version="1.0" encoding="utf-8"?>
<!-- Generator: Adobe Illustrator 19.1.0, SVG Export Plug-In . SVG Version: 6.00 Build 0)  -->
<svg version="1.1" id="Layer_1" xmlns="http://www.w3.org/2000/svg" xmlns:xlink="http://www.w3.org/1999/xlink" x="0px" y="0px"
	 viewBox="0 28.7 935.4 226.8" enable-background="new 0 28.7 935.4 226.8" xml:space="preserve">
<ellipse cx="467.7" cy="142.1" rx="466.3" ry="112"/>
<g>
	<path fill="#FFFFFF" d="M258.4,131.8h-23.7v-2.7c1.1-0.1,2.4-0.3,3.9-0.7c1.5-0.4,2.2-0.8,2.2-1.3v-0.6c0-0.2-0.1-0.5-0.3-0.9
		l-3.7-10h-15.1c-0.3,0.9-0.7,2-1.1,3.3c-0.4,1.3-0.8,2.4-1.1,3.3c-0.4,1.3-0.6,2.2-0.7,2.8c-0.1,0.6-0.1,1-0.1,1.2
		c0,0.7,0.5,1.3,1.5,1.9c1,0.5,2.6,0.9,5,1.1v2.7h-17.9v-2.7c0.7,0,1.4-0.2,2.3-0.4c0.8-0.2,1.5-0.5,2-0.8c0.8-0.5,1.6-1.2,2.1-2
		c0.6-0.8,1.1-1.7,1.5-2.8c2.4-6.4,4.8-12.8,7.1-19.2c2.4-6.4,5-13.5,7.9-21.2h6.1c4,11,7.2,19.6,9.4,26c2.3,6.4,4.2,11.7,5.8,15.8
		c0.3,0.7,0.6,1.3,1,1.9s1,1.1,1.8,1.6c0.6,0.4,1.2,0.6,2,0.8c0.8,0.2,1.4,0.3,2.1,0.3V131.8L258.4,131.8z M235.5,112.2l-6.3-17.5
		l-6.2,17.5H235.5z M276.3,126.2c0,1.8-0.6,3.4-1.8,4.7c-1.2,1.3-2.6,2-4.3,2c-1.7,0-3.1-0.7-4.3-2c-1.2-1.3-1.8-2.9-1.8-4.7
		c0-1.8,0.6-3.4,1.8-4.7c1.2-1.3,2.6-2,4.3-2c1.6,0,3.1,0.7,4.3,2C275.7,122.8,276.3,124.4,276.3,126.2z M340,95.5
		c0,2.7-0.5,5.1-1.5,7c-1,2-2.4,3.6-4.2,4.8c-1.8,1.3-3.9,2.2-6.3,2.8c-2.4,0.6-5,0.9-8,0.9h-3.6v13.6c0,0.8,0.1,1.5,0.4,2.1
		s0.8,1.1,1.6,1.5c0.4,0.2,1.1,0.4,2,0.6s1.7,0.3,2.3,0.4v2.7h-23.6v-2.7c0.6-0.1,1.4-0.2,2.4-0.3c1-0.1,1.7-0.3,2.1-0.5
		c0.8-0.4,1.3-0.8,1.6-1.3c0.3-0.5,0.4-1.3,0.4-2.2V90.7c0-0.8-0.1-1.5-0.4-2.1c-0.2-0.6-0.8-1.1-1.6-1.5c-0.6-0.3-1.3-0.5-2.3-0.7
		c-1-0.2-1.7-0.4-2.1-0.4v-2.7h24.1c5.6,0,9.8,1,12.6,3C338.6,88.4,340,91.4,340,95.5z M328,97.3c0-3.6-0.7-6.3-2-8.1
		c-1.3-1.8-3.7-2.6-7.1-2.6h-2.5v21.3h1.3c3.4,0,5.9-0.9,7.7-2.6C327.1,103.5,328,100.8,328,97.3z M350.1,126.2
		c0,1.8-0.6,3.4-1.8,4.7c-1.2,1.3-2.6,2-4.3,2c-1.7,0-3.1-0.7-4.3-2c-1.2-1.3-1.8-2.9-1.8-4.7c0-1.8,0.6-3.4,1.8-4.7
		c1.2-1.3,2.6-2,4.3-2c1.6,0,3.1,0.7,4.3,2C349.5,122.8,350.1,124.4,350.1,126.2z M396.9,133.2c-3.2,0-6.2-0.6-9-1.7
		c-2.8-1.2-5.2-2.8-7.3-5c-2-2.1-3.6-4.8-4.8-7.9c-1.2-3.2-1.8-6.6-1.8-10.4s0.6-7.2,1.8-10.4c1.2-3.2,2.8-6,5-8.3
		c2.1-2.3,4.6-4.1,7.5-5.3c2.9-1.3,6.1-1.9,9.4-1.9c2.4,0,4.6,0.3,6.6,1c2,0.7,3.7,1.4,5,2.2l1.9-1.9h2.7l0.3,17.7h-2.7
		c-1.5-5.6-3.3-9.6-5.5-12.1c-2.1-2.5-4.8-3.8-7.9-3.8c-3.8,0-6.8,1.9-8.8,5.7c-2,3.8-3,9.1-3,15.9c0,3.9,0.3,7.1,1,9.9
		c0.7,2.7,1.6,4.9,2.7,6.6c1.2,1.7,2.6,3,4.2,3.8c1.6,0.8,3.4,1.2,5.4,1.2c2.9,0,5.4-0.9,7.7-2.6c2.2-1.7,4.3-4.3,6.1-7.9l2.6,1.8
		c-0.9,2-1.9,3.8-3,5.4s-2.4,2.9-3.9,4.1c-1.6,1.3-3.4,2.2-5.4,2.9C401.9,132.8,399.6,133.2,396.9,133.2L396.9,133.2z M464.5,116.3
		l-0.9,15.5h-40.2v-2.7c0.7-0.1,1.6-0.2,2.5-0.3c1-0.1,1.6-0.3,1.9-0.4c0.7-0.3,1.2-0.8,1.5-1.3c0.3-0.6,0.4-1.3,0.4-2.2V90.7
		c0-0.8-0.1-1.5-0.3-2c-0.2-0.5-0.8-1-1.6-1.5c-0.6-0.3-1.4-0.6-2.3-0.8c-0.9-0.2-1.6-0.3-2.1-0.4v-2.7h23.9V86
		c-0.7,0.1-1.4,0.2-2.3,0.3s-1.7,0.3-2.3,0.5c-0.8,0.3-1.3,0.8-1.6,1.4c-0.3,0.6-0.4,1.3-0.4,2.1v31.9c0,1.5,0.1,2.7,0.3,3.6
		c0.2,0.9,0.5,1.5,1.1,1.9c0.5,0.4,1.3,0.7,2.2,0.8c1,0.1,2.3,0.2,3.9,0.2s3.2-0.1,4.8-0.3c1.5-0.2,2.7-0.7,3.3-1.4
		c1-1.2,2.1-2.8,3.2-4.9s2-4,2.6-5.8C462.1,116.3,464.5,116.3,464.5,116.3z M510.8,95.8h-2.3c-0.6-1.8-1.6-3.7-3.1-5.6
		s-2.9-3-4.3-3.3c-0.6-0.2-1.5-0.3-2.6-0.3s-2-0.1-2.7-0.1h-6.3v18.7h4.5c1.1,0,2.2-0.1,3.1-0.4s1.8-0.9,2.5-1.7
		c0.5-0.5,0.9-1.4,1.4-2.8c0.5-1.3,0.8-2.5,0.9-3.4h2.3v20.2h-2.3c-0.1-1-0.4-2.2-0.9-3.6s-1-2.4-1.4-3c-0.7-0.8-1.5-1.4-2.4-1.7
		c-0.9-0.3-2-0.5-3.2-0.5h-4.5v14c0,1.5,0.1,2.6,0.3,3.5c0.2,0.9,0.6,1.5,1.1,2c0.5,0.4,1.2,0.7,2.1,0.9c0.9,0.1,2.1,0.2,3.6,0.2
		h2.6c1,0,1.9-0.1,2.6-0.2c0.9-0.1,1.7-0.3,2.4-0.5c0.7-0.2,1.3-0.6,1.7-1c1-1.1,2.1-2.8,3.3-5.1c1.2-2.3,2-4,2.4-5.1h2.2l-0.8,15.1
		h-40.9v-2.7c0.6,0,1.4-0.1,2.3-0.3c1-0.1,1.7-0.3,2.1-0.5c0.8-0.4,1.3-0.8,1.6-1.4c0.3-0.6,0.4-1.3,0.4-2.1V90.7
		c0-0.8-0.1-1.5-0.3-2c-0.2-0.5-0.8-1-1.6-1.5c-0.5-0.3-1.3-0.5-2.2-0.8c-1-0.2-1.7-0.4-2.2-0.4v-2.7h38.6V95.8z M571.6,131.8h-23.7
		v-2.7c1.1-0.1,2.4-0.3,3.9-0.7c1.5-0.4,2.2-0.8,2.2-1.3v-0.6c0-0.2-0.1-0.5-0.3-0.9l-3.7-10h-15.1c-0.3,0.9-0.7,2-1.1,3.3
		c-0.4,1.3-0.8,2.4-1.1,3.3c-0.4,1.3-0.6,2.2-0.7,2.8c-0.1,0.6-0.1,1-0.1,1.2c0,0.7,0.5,1.3,1.5,1.9c1,0.5,2.6,0.9,5,1.1v2.7h-17.9
		v-2.7c0.7,0,1.4-0.2,2.3-0.4c0.9-0.2,1.5-0.5,2-0.8c0.8-0.5,1.6-1.2,2.1-2c0.6-0.8,1.1-1.7,1.5-2.8c2.4-6.4,4.8-12.8,7.1-19.2
		c2.4-6.4,5-13.5,7.9-21.2h6.1c4,11,7.2,19.6,9.4,26c2.3,6.4,4.2,11.7,5.8,15.8c0.3,0.7,0.6,1.3,1,1.9s1,1.1,1.8,1.6
		c0.6,0.4,1.2,0.6,2,0.8c0.8,0.2,1.4,0.3,2.1,0.3V131.8L571.6,131.8z M548.7,112.2l-6.3-17.5l-6.2,17.5H548.7L548.7,112.2z
		 M624.1,86.1c-0.6,0.1-1.4,0.2-2.5,0.4c-1.1,0.2-2,0.6-2.9,1.3c-0.8,0.6-1.3,1.7-1.6,3.2s-0.5,3.7-0.5,6.6v34.6h-5.5L584,94.7v22.7
		c0,2.8,0.2,5,0.5,6.4c0.3,1.5,0.9,2.5,1.6,3.2c0.6,0.5,1.4,0.9,2.6,1.3c1.2,0.4,2.2,0.6,2.9,0.8v2.7H573v-2.7
		c0.8-0.1,1.7-0.2,2.7-0.5s1.9-0.7,2.6-1.2c0.8-0.7,1.3-1.7,1.6-3s0.4-3.6,0.4-6.7V94.8c0-1.1-0.2-2.2-0.5-3.2s-0.8-1.9-1.5-2.6
		c-0.7-0.8-1.5-1.4-2.5-1.8c-0.9-0.4-2-0.8-3.2-1v-2.7H589l24,32.7V97.8c0-2.9-0.2-5.1-0.5-6.5s-0.9-2.5-1.7-3.2
		c-0.6-0.5-1.5-1-2.6-1.3c-1.2-0.4-2.1-0.6-2.8-0.8v-2.7h18.7L624.1,86.1L624.1,86.1z M652.8,131.8h-24.2v-2.7
		c0.6,0,1.4-0.1,2.4-0.2c1.1-0.1,1.8-0.2,2.2-0.4c0.8-0.3,1.3-0.8,1.6-1.3c0.3-0.6,0.4-1.3,0.4-2.1V90.7c0-0.8-0.1-1.5-0.4-2
		c-0.3-0.6-0.8-1.1-1.6-1.4c-0.5-0.2-1.2-0.5-2.2-0.7c-1-0.2-1.8-0.4-2.5-0.5v-2.7h24.2v2.7c-0.6,0.1-1.4,0.2-2.3,0.3
		c-0.9,0.1-1.7,0.3-2.3,0.5c-0.8,0.3-1.3,0.8-1.6,1.4s-0.4,1.3-0.4,2.1v34.3c0,0.8,0.1,1.5,0.4,2.1c0.3,0.6,0.8,1.1,1.6,1.4
		c0.4,0.2,1.1,0.4,2.1,0.6s1.8,0.3,2.5,0.4L652.8,131.8L652.8,131.8z M709,86.1c-0.6,0.1-1.4,0.2-2.5,0.4c-1.1,0.2-2,0.6-2.9,1.3
		c-0.8,0.6-1.3,1.7-1.6,3.2s-0.5,3.7-0.5,6.6v34.6H696l-27.1-37.5v22.7c0,2.8,0.2,5,0.5,6.4c0.3,1.5,0.9,2.5,1.6,3.2
		c0.6,0.5,1.4,0.9,2.6,1.3c1.2,0.4,2.2,0.6,2.9,0.8v2.7h-18.7v-2.7c0.8-0.1,1.7-0.2,2.8-0.5c1-0.3,1.9-0.7,2.6-1.2
		c0.8-0.7,1.3-1.7,1.6-3s0.4-3.6,0.4-6.7V94.8c0-1.1-0.2-2.2-0.5-3.2s-0.8-1.9-1.5-2.6c-0.7-0.8-1.5-1.4-2.5-1.8
		c-0.9-0.4-2-0.8-3.2-1v-2.7h16.4l23.8,32.8V97.8c0-2.9-0.2-5.1-0.5-6.5s-0.9-2.5-1.7-3.2c-0.6-0.5-1.5-1-2.6-1.3
		c-1.2-0.4-2.1-0.6-2.8-0.8v-2.7H709C709,83.3,709,86.1,709,86.1z M757.5,112.1c-0.6,0.1-1.2,0.1-1.7,0.2s-1.1,0.3-1.8,0.5
		c-0.8,0.3-1.4,0.8-1.7,1.5s-0.4,1.4-0.4,2.2v8.3c0,0.7,0.1,1.6,0.1,2.6c-2,1.4-5.1,2.7-9.1,3.9c-4,1.2-7.7,1.8-11,1.8
		c-3.2,0-6.1-0.5-8.9-1.6c-2.8-1.1-5.2-2.7-7.3-4.8c-2.1-2.1-3.7-4.7-4.9-7.9c-1.2-3.1-1.8-6.7-1.8-10.8c0-3.8,0.6-7.3,1.7-10.5
		s2.8-6,4.9-8.3c2.1-2.3,4.6-4.1,7.6-5.3c3-1.3,6.3-1.9,10-1.9c2.5,0,4.8,0.3,6.9,1c2.1,0.7,3.9,1.4,5.2,2.2l1.9-1.9h2.7l0.3,17.7
		h-2.7c-1.6-5.3-3.4-9.3-5.6-11.8c-2.2-2.6-4.9-3.9-8.2-3.9c-3.9,0-7,1.9-9.1,5.7c-2.1,3.8-3.2,9.1-3.2,15.8c0,7.1,1,12.7,3.1,16.7
		s5.1,6,8.9,6c1.8,0,3.4-0.3,4.8-0.9c1.4-0.6,2.5-1.3,3.3-2.1v-9.8c0-0.8-0.1-1.5-0.4-2.1c-0.3-0.6-0.8-1-1.6-1.5
		c-0.6-0.3-1.4-0.6-2.3-0.8c-0.9-0.2-1.7-0.4-2.3-0.4v-2.7h22.6V112.1z M326.7,217.1c-2.7,0-5.1-0.4-7.5-1.1
		c-2.3-0.7-4.3-1.6-5.9-2.6l-2.1,2.4h-2.6l-0.4-17.5h2.6c0.6,1.7,1.4,3.4,2.3,5.3c0.9,1.8,2,3.5,3.2,5s2.6,2.8,4.2,3.7
		c1.5,1,3.4,1.4,5.4,1.4c2.8,0,4.9-0.8,6.4-2.3s2.2-3.4,2.2-5.7c0-1.9-0.6-3.5-1.9-4.8s-3.2-2.4-5.9-3.3c-1.7-0.6-3.3-1.2-4.7-1.7
		c-1.4-0.5-2.8-1.1-4.1-1.6c-2.9-1.3-5.1-3.2-6.5-5.6c-1.4-2.4-2.1-5.1-2.1-8.1c0-1.9,0.4-3.7,1.1-5.5c0.7-1.7,1.8-3.3,3.2-4.7
		c1.4-1.3,3.1-2.4,5.2-3.2s4.4-1.2,6.9-1.2c2.4,0,4.7,0.4,6.8,1.1c2.1,0.8,3.8,1.5,5,2.3l1.9-2h2.7l0.2,16.5h-2.6
		c-0.6-1.8-1.3-3.6-2.2-5.5c-0.8-1.9-1.7-3.4-2.6-4.6c-1-1.3-2.2-2.4-3.5-3.2s-2.8-1.2-4.6-1.2c-2.2,0-4,0.7-5.4,2.1
		c-1.4,1.4-2.1,3.1-2.1,5.2c0,1.9,0.6,3.5,1.8,4.8c1.2,1.2,3.1,2.3,5.7,3.2c1.5,0.6,3.1,1.1,4.6,1.7c1.6,0.6,3,1.1,4.2,1.6
		c3,1.3,5.2,3,6.8,5.3c1.5,2.2,2.3,5,2.3,8.4c0,2.1-0.4,4.1-1.3,6.1s-2.1,3.6-3.6,4.9c-1.6,1.4-3.5,2.5-5.7,3.3
		C332,216.7,329.5,217.1,326.7,217.1L326.7,217.1z M389.9,179.7h-2.3c-0.6-1.8-1.6-3.7-3.1-5.6c-1.5-1.9-2.9-3-4.3-3.3
		c-0.6-0.2-1.5-0.3-2.6-0.3s-2-0.1-2.7-0.1h-6.3v18.7h4.5c1.1,0,2.2-0.1,3.1-0.4c0.9-0.3,1.8-0.9,2.5-1.7c0.5-0.5,0.9-1.4,1.4-2.8
		c0.5-1.3,0.8-2.5,0.9-3.4h2.3V201H381c-0.1-1-0.4-2.2-0.9-3.6s-1-2.4-1.4-3c-0.7-0.8-1.5-1.4-2.4-1.7s-2-0.5-3.2-0.5h-4.5v14
		c0,1.5,0.1,2.6,0.3,3.5c0.2,0.9,0.6,1.5,1.1,2c0.5,0.4,1.2,0.7,2.1,0.9s2.1,0.2,3.6,0.2h2.6c1,0,1.9-0.1,2.6-0.2
		c0.9-0.1,1.7-0.3,2.4-0.5s1.3-0.6,1.7-1c1-1.1,2.1-2.8,3.3-5.1c1.2-2.3,2-4,2.4-5.1h2.2l-0.8,15.1h-40.9v-2.7
		c0.6,0,1.4-0.1,2.3-0.3c1-0.1,1.7-0.3,2.1-0.5c0.8-0.4,1.3-0.8,1.6-1.4c0.3-0.6,0.4-1.3,0.4-2.1v-34.2c0-0.8-0.1-1.5-0.3-2
		c-0.2-0.5-0.8-1-1.6-1.5c-0.5-0.3-1.3-0.5-2.2-0.8c-1-0.2-1.7-0.4-2.2-0.4v-2.7H390v12.3H389.9z M449.8,215.7h-16.7
		c-2.9-4.9-5.3-8.8-7.2-11.7c-1.9-2.9-4.3-6.3-7.1-10.1h-1.7v14.7c0,0.8,0.1,1.5,0.4,2.1s0.8,1,1.6,1.4c0.4,0.2,1,0.4,1.8,0.6
		s1.5,0.3,2.1,0.4v2.7h-23.3v-2.7c0.6-0.1,1.4-0.2,2.4-0.3s1.7-0.3,2.1-0.5c0.8-0.4,1.3-0.8,1.6-1.4s0.4-1.3,0.4-2.1v-34.2
		c0-0.8-0.1-1.5-0.3-2c-0.2-0.5-0.8-1-1.6-1.4c-0.7-0.3-1.4-0.5-2.3-0.8c-0.9-0.2-1.6-0.4-2.1-0.4v-2.7h24.5c5.5,0,9.6,1,12.5,2.9
		c2.8,1.9,4.3,4.8,4.3,8.6c0,3.4-0.9,6.1-2.6,8.2s-4.4,3.7-8,4.8c1.4,2,3,4.3,4.9,7c1.9,2.6,3.8,5.3,5.8,8.1c0.6,0.9,1.5,2,2.6,3.3
		s2.1,2.1,2.9,2.4c0.5,0.2,1.1,0.3,1.8,0.4c0.7,0.1,1.2,0.2,1.6,0.2v2.5H449.8z M428.9,179.7c0-3.2-0.8-5.6-2.4-7.1s-3.9-2.2-7-2.2
		h-2.4v20.3h2.3c3,0,5.3-0.9,7-2.6C428.1,186.3,428.9,183.5,428.9,179.7z M497.9,170c-0.7,0.1-1.3,0.2-1.9,0.4s-1.2,0.5-1.9,1
		c-0.9,0.6-1.6,1.2-2,1.8c-0.5,0.6-1,1.5-1.4,2.7c-0.6,1.6-1.5,3.9-2.7,6.9c-1.1,3-2.5,6.4-3.9,10.3c-1.3,3.5-2.7,7.2-4.3,11.4
		c-1.5,4.1-3,8.1-4.4,11.8h-6.2c-2.9-7.8-5.8-15.7-8.8-23.8s-5.1-13.7-6.3-16.8c-0.5-1.1-0.9-2-1.4-2.6c-0.4-0.6-1.1-1.2-2.1-1.8
		c-0.7-0.4-1.3-0.7-1.8-0.9s-1.2-0.3-2.1-0.5v-2.7h23.6v2.6c-2.2,0.3-3.7,0.6-4.5,0.9c-0.8,0.3-1.2,0.7-1.2,1.2c0,0.3,0,0.5,0.1,0.8
		s0.2,0.7,0.3,1.1c0.7,2,1.8,5.3,3.6,9.8c1.7,4.5,4.3,11.5,7.6,20.8c2.1-5.7,3.8-10.4,5.2-14.4c1.4-3.9,2.6-7.4,3.6-10.4
		c0.5-1.5,0.9-2.8,1.3-4.1c0.3-1.3,0.5-2.2,0.5-2.9s-0.5-1.3-1.4-1.8s-2.7-0.8-5.2-1.1V167h17.7L497.9,170L497.9,170z M525.9,215.7
		h-24.2V213c0.6,0,1.4-0.1,2.4-0.2s1.8-0.2,2.2-0.4c0.8-0.3,1.3-0.8,1.6-1.3c0.3-0.6,0.4-1.3,0.4-2.1v-34.3c0-0.8-0.1-1.5-0.4-2
		c-0.3-0.6-0.8-1.1-1.6-1.4c-0.5-0.2-1.2-0.5-2.2-0.7s-1.8-0.4-2.5-0.5v-2.7h24.2v2.7c-0.6,0.1-1.4,0.2-2.3,0.3
		c-0.9,0.1-1.7,0.3-2.3,0.5c-0.8,0.3-1.3,0.8-1.6,1.4c-0.3,0.6-0.4,1.3-0.4,2.1v34.3c0,0.8,0.1,1.5,0.4,2.1c0.3,0.6,0.8,1.1,1.6,1.4
		c0.4,0.2,1.1,0.4,2.1,0.6c1,0.2,1.8,0.3,2.5,0.4v2.5H525.9z M553.7,217.1c-3.2,0-6.2-0.6-9-1.7c-2.8-1.2-5.2-2.8-7.3-5
		c-2-2.1-3.6-4.8-4.8-7.9c-1.2-3.2-1.8-6.6-1.8-10.4c0-3.8,0.6-7.2,1.8-10.4s2.8-6,5-8.3c2.1-2.3,4.6-4.1,7.5-5.3
		c2.9-1.3,6.1-1.9,9.4-1.9c2.4,0,4.6,0.3,6.6,1s3.7,1.4,5,2.2l1.9-1.9h2.7l0.3,17.7h-2.7c-1.5-5.4-3.4-9.4-5.5-11.9
		s-4.8-3.8-7.9-3.8c-3.8,0-6.8,1.9-8.8,5.7s-3,9.1-3,15.9c0,3.9,0.3,7.1,1,9.9c0.7,2.7,1.6,4.9,2.7,6.6c1.2,1.7,2.6,3,4.2,3.8
		c1.6,0.8,3.4,1.2,5.4,1.2c2.9,0,5.4-0.9,7.7-2.6c2.2-1.7,4.3-4.3,6.1-7.9l2.6,1.8c-0.9,2-1.9,3.8-3,5.4c-1.1,1.6-2.4,2.9-3.9,4.1
		c-1.6,1.3-3.4,2.2-5.4,2.9C558.7,216.7,556.4,217.1,553.7,217.1L553.7,217.1z M616.5,179.7h-2.3c-0.6-1.8-1.6-3.7-3.1-5.6
		c-1.5-1.9-2.9-3-4.3-3.3c-0.6-0.2-1.5-0.3-2.6-0.3s-2-0.1-2.7-0.1h-6.3v18.7h4.5c1.1,0,2.2-0.1,3.1-0.4c0.9-0.3,1.8-0.9,2.5-1.7
		c0.5-0.5,0.9-1.4,1.4-2.8c0.5-1.3,0.8-2.5,0.9-3.4h2.3V201h-2.3c-0.1-1-0.4-2.2-0.9-3.6s-1-2.4-1.4-3c-0.7-0.8-1.5-1.4-2.4-1.7
		s-2-0.5-3.2-0.5h-4.5v14c0,1.5,0.1,2.6,0.3,3.5s0.6,1.5,1.1,2c0.5,0.4,1.2,0.7,2.1,0.9s2.1,0.2,3.6,0.2h2.6c0,0,1.9-0.1,2.6-0.2
		c0.9-0.1,1.7-0.3,2.4-0.5s1.3-0.6,1.7-1c1-1.1,2.1-2.8,3.3-5.1s2-4,2.4-5.1h2.2l-0.8,15.1h-40.9v-2.7c0.6,0,1.4-0.1,2.3-0.3
		c1-0.1,1.7-0.3,2.1-0.5c0.8-0.4,1.3-0.8,1.6-1.4c0.3-0.6,0.4-1.3,0.4-2.1v-34.2c0-0.8-0.1-1.5-0.3-2s-0.8-1-1.6-1.5
		c-0.5-0.3-1.3-0.5-2.2-0.8c-1-0.2-1.7-0.4-2.2-0.4v-2.7h38.7L616.5,179.7L616.5,179.7z M645.9,217.1c-2.7,0-5.1-0.4-7.5-1.1
		c-2.3-0.7-4.3-1.6-5.9-2.6l-2.1,2.4h-2.6l-0.4-17.5h2.6c0.6,1.7,1.4,3.4,2.3,5.3c0.9,1.8,2,3.5,3.2,5s2.6,2.8,4.2,3.7
		c1.5,1,3.4,1.4,5.4,1.4c2.8,0,4.9-0.8,6.4-2.3s2.2-3.4,2.2-5.7c0-1.9-0.6-3.5-1.9-4.8c-1.3-1.3-3.2-2.4-5.9-3.3
		c-1.7-0.6-3.3-1.2-4.7-1.7s-2.8-1.1-4.1-1.6c-2.9-1.3-5.1-3.2-6.5-5.6c-1.4-2.4-2.1-5.1-2.1-8.1c0-1.9,0.4-3.7,1.1-5.5
		c0.7-1.7,1.8-3.3,3.2-4.7c1.4-1.3,3.1-2.4,5.2-3.2c2.1-0.8,4.4-1.2,6.9-1.2c2.4,0,4.7,0.4,6.8,1.1c2.1,0.8,3.8,1.5,5,2.3l1.9-2h2.7
		l0.2,16.5h-2.6c-0.6-1.8-1.3-3.6-2.2-5.5c-0.8-1.9-1.7-3.4-2.6-4.6c-1-1.3-2.2-2.4-3.5-3.2s-2.8-1.2-4.6-1.2c-2.2,0-4,0.7-5.4,2.1
		c-1.4,1.4-2.1,3.1-2.1,5.2c0,1.9,0.6,3.5,1.8,4.8c1.2,1.2,3.1,2.3,5.7,3.2c1.5,0.6,3.1,1.1,4.6,1.7c1.6,0.6,3,1.1,4.2,1.6
		c3,1.3,5.2,3,6.8,5.3c1.5,2.2,2.3,5,2.3,8.4c0,2.1-0.4,4.1-1.3,6.1s-2.1,3.6-3.6,4.9c-1.6,1.4-3.5,2.5-5.7,3.3
		C651.3,216.7,648.8,217.1,645.9,217.1L645.9,217.1z"/>
</g>
</svg>
